<?xml version="1.0" encoding="UTF-8"?>
<svg width="84px" height="48px" viewBox="0 0 84 48" version="1.1" xmlns="http://www.w3.org/2000/svg" xmlns:xlink="http://www.w3.org/1999/xlink">
    <title>编组备份 3</title>
    <g id="页面-1" stroke="none" stroke-width="1" fill="none" fill-rule="evenodd">
        <g id="HolyCrab" transform="translate(-50.000000, -175.000000)">
            <g id="编组备份-3" transform="translate(50.000000, 174.999880)">
                <path d="M81.8516317,34.8537478 C78.8302834,43.2221937 73.7432422,49.0385732 70.4896536,47.8446187 C67.2360649,46.6506642 67.0474253,38.8989302 70.0687736,30.5304842 C73.090122,22.1620383 78.1771632,16.3456588 81.4307518,17.5396133 C84.6847854,18.7335678 84.8729801,26.4853018 81.8516317,34.8537478" id="Fill-1" fill="#FFFFFF"></path>
                <path d="M78.8292156,33.505548 L78.8292156,33.505548 C77.3410092,37.627427 74.8860246,40.5104997 70.7973497,39.0102075 L47.9270197,30.6184386 C43.8383448,29.1185949 41.730386,24.5607566 43.2181475,20.4388776 L43.2181475,20.4388776 C44.706354,16.3169985 49.2274764,14.191921 53.3157063,15.6922132 L76.1860364,24.0839821 C80.2747112,25.5842743 80.3174221,29.383669 78.8292156,33.505548" id="Fill-3" fill="#202020"></path>
                <path d="M50.6271023,17.4556508 C48.3167118,17.4556508 46.143352,18.8940475 45.3087106,21.2057085 C44.7921761,22.636929 44.8593568,24.1843155 45.4973502,25.5639564 C46.1357886,26.9440458 47.2685161,27.990438 48.6877624,28.5111672 L71.5580924,36.9029361 C72.6120718,37.2895585 74.8054523,38.0941995 76.7390085,32.7384479 C78.6725647,27.3826963 76.4791841,26.5780553 75.4256496,26.1914329 L52.5548747,17.799664 C51.9191058,17.5659862 51.2677652,17.4556508 50.6271023,17.4556508 M72.886578,41.6572253 C72.0296914,41.6572253 71.0798198,41.500244 70.0365181,41.1176583 L47.166188,32.7258894 C44.6302308,31.7956634 42.6059141,29.925344 41.4651782,27.4598414 C40.3248873,24.9943388 40.2052079,22.2283292 41.1279404,19.6717775 C43.0330227,14.3945165 48.8421443,11.6630428 54.076449,13.5849418 L76.9472239,21.9767107 C80.2848996,23.2016129 81.4167373,25.5810001 81.7784449,27.3620645 C82.1748551,29.3135656 81.8936752,31.5740956 80.9193338,34.2723789 C79.9454372,36.9711108 78.7192797,38.884488 77.171011,40.1228457 C76.2002288,40.8996786 74.76986,41.6572253 72.886578,41.6572253" id="Fill-5" fill="#FFFFFF"></path>
                <polygon id="Fill-7" fill="#FF5A5A" points="51.9579904 39.2324481 44.7736681 23.7002751 44.7816764 23.6966869 51.9659987 39.22886"></polygon>
                <path d="M20.0608094,28.3156583 L47.8731417,22.100995 L51.9515838,37.0312571 C40.4739304,40.2134912 25.4503859,36.0925092 20.0608094,28.3156583" id="Fill-9" fill="#202020"></path>
                <path d="M24.2997287,29.6655176 C29.9722646,34.5310392 40.4257472,37.0032695 49.1903713,35.3697676 L46.2900371,24.7520046 L24.2997287,29.6655176 Z M43.6219431,40.3492127 C33.3597695,40.3492127 22.7959505,36.1784452 18.2374562,29.600034 C17.8116823,28.986013 17.7186972,28.1988642 17.9878646,27.5018675 C18.2574769,26.8039737 18.8545391,26.2881782 19.579289,26.1258147 L47.3916213,19.9116 C48.5488186,19.6545992 49.7033465,20.3542871 50.0178942,21.5060809 L54.0963363,36.4358945 C54.2529427,37.0091003 54.1773089,37.6217757 53.8854514,38.1393653 C53.5940388,38.6565063 53.1104273,39.0359524 52.5413941,39.1933822 C49.7060159,39.9791855 46.6775491,40.3492127 43.6219431,40.3492127 L43.6219431,40.3492127 Z" id="Fill-11" fill="#FFFFFF"></path>
                <path d="M50.7075411,4.38045854 C59.8743591,7.74389387 66.6346872,14.4469931 69.4940901,21.9646007 C70.7358194,25.2298106 72.064305,34.9473983 62.5455674,39.9102483 C57.6711906,42.4515504 49.1125574,44.2465188 40.7127553,41.1643042 L46.5183177,25.0571313 L47.9927321,20.9729278 L19.2047237,10.409884 C25.9601578,2.68864922 38.583441,-0.0683899781 50.7075411,4.38045854" id="Fill-13" fill="#202020"></path>
                <g id="编组" transform="translate(16.980250, 0.000000)" fill="#FFFFFF">
                    <path d="M26.6176683,39.7260868 C33.6484985,41.5851933 40.5347346,40.0082046 44.5433266,37.9185599 C54.1590536,32.9050274 50.475242,22.8680951 50.4369802,22.7671785 C47.70482,15.5855108 41.1736179,9.49912361 32.9664595,6.48777479 C23.241286,2.91981532 13.0009127,4.19046638 6.35181085,9.53769615 L31.7732249,18.8655218 C32.9277528,19.2893712 33.5230353,20.5761689 33.1030452,21.7396242 L26.6176683,39.7260868 Z M33.0256318,45.0212885 C29.7933986,45.0212885 26.3676318,44.5180515 22.9716737,43.2716204 C21.8171458,42.8482196 21.2223081,41.5623189 21.6414084,40.3984151 L28.1614879,22.3132785 L1.46364208,12.5172002 C0.77270496,12.2637876 0.250386753,11.6825085 0.0688656046,10.9635344 C-0.112655544,10.2454573 0.0697554142,9.48252845 0.556036335,8.92636632 C8.12386658,0.277148171 21.7597531,-2.39646671 34.4880338,2.27305259 L34.4880338,2.27305259 C43.8888717,5.72260334 51.4042032,12.7840683 54.5910561,21.1614847 C56.0534581,25.0075252 57.4669206,36.2298902 46.5872192,41.9027439 C43.322063,43.6044207 38.4472414,45.0212885 33.0256318,45.0212885 L33.0256318,45.0212885 Z" id="Fill-15"></path>
                </g>
                <path d="M10.8383339,19.1091567 C10.7742676,17.872593 9.73007606,16.9132133 8.50080416,16.9872188 L2.10796743,17.3245042 C0.881364963,17.3890908 -0.0613882573,18.4444532 0.0031229352,19.6810169 C0.0649646991,20.8776626 1.04731444,21.806543 2.22230796,21.806543 C2.26145958,21.806543 2.3010561,21.805646 2.34065263,21.8034034 L8.73304445,21.466118 C9.96009183,21.4010829 10.902845,20.3461689 10.8383339,19.1091567" id="Fill-17" fill="#FFFFFF"></path>
                <path d="M4.64178911,8.20631577 L9.35021636,10.4937568 C9.6612048,10.6449073 9.98998943,10.7166702 10.314325,10.7166702 C11.141403,10.7166702 11.9364478,10.248866 12.3195108,9.44736465 C12.8529517,8.33100373 12.3880262,6.99083241 11.2811031,6.45350803 L6.57312075,4.16606701 C5.46619766,3.62739708 4.13682219,4.09699526 3.60338136,5.21245915 C3.06994054,6.32837155 3.53486603,7.66899139 4.64178911,8.20631577" id="Fill-19" fill="#FFFFFF"></path>
                <path d="M14.7429516,29.9905136 C14.5133808,28.7736847 13.349065,27.9766685 12.1420383,28.2058611 L6.635007,29.2612236 C5.42798034,29.4926588 4.63560494,30.66643 4.8647309,31.8832589 C5.06760747,32.9583562 6.00057279,33.707381 7.04787863,33.707381 C7.18579911,33.707381 7.32549921,33.694374 7.46564422,33.6674629 L12.9726755,32.6125489 C14.1797022,32.3811137 14.9725225,31.2073425 14.7429516,29.9905136" id="Fill-21" fill="#FFFFFF"></path>
            </g>
        </g>
    </g>
</svg>